<?xml version="1.0" encoding="UTF-8"?>
<!-- Created with Inkscape (http://www.inkscape.org/) -->
<svg width="611.94" height="320" version="1.1" viewBox="0 0 611.94 320" xmlns="http://www.w3.org/2000/svg">
 <rect x="-5.0434e-5" y="9.1135e-6" width="611.94" height="320" fill="#2d2d2d"/>
 <g fill="#fff">
  <path d="m129.03 178.62v101.38h63.789v-20h-43.789v-19.922h43.789v-20h-43.789v-21.461h43.789v-20z"/>
  <path d="m39.998 178.62v20h24.516v81.383h20v-81.383h24.516v-20z"/>
  <path d="m39.998 40v20h25.563v59.836h-25.563v20h69.031v-20h-23.469v-59.836h25.563v-20z"/>
  <path d="m129.03 40v99.836h20v-55.063c5.794 18.706 29.031 35.004 29.031 55.063h20v-99.836h-20v55.055c-5.7848-18.702-29.031-35.004-29.031-55.055z"/>
 </g>
 <path d="m228.87 40v160c0.0922 28.489 15.328 54.779 40 69.024 12.136 7.1119 25.934 10.898 40 10.977 14.047-0.0151 27.842-3.7225 40-10.758 24.74-14.283 39.986-40.675 40-69.242v-160h-40v160c0 22.091-17.909 40-40 40-22.091 0-40-17.909-40-40v-160z" fill="#ffff3e"/>
 <path d="m420.4 40v240h40v-0.33562a120 120 0 0 0 111.54-119.66 120 120 0 0 0-111.54-119.66v-0.33562zm40 40.477a80 80 0 0 1 71.539 79.524 80 80 0 0 1-71.539 79.523z" fill="#dc0000"/>
</svg>
